<svg id="svg" xmlns="http://www.w3.org/2000/svg" xmlns:xlink="http://www.w3.org/1999/xlink" width="400" height="400" viewBox="0, 0, 400,400"><g id="svgg"><path id="path0" d="M190.333 0.373 C 155.359 5.074,138.990 27.649,135.861 75.500 C 135.597 79.533,135.271 83.117,135.137 83.463 C 134.715 84.552,130.650 86.107,113.676 91.675 C 49.356 112.775,18.654 129.738,5.496 151.449 C -4.409 167.793,-0.681 190.914,13.423 200.613 C 21.898 206.441,31.459 208.352,55.432 209.010 C 87.127 209.879,91.915 212.918,86.598 228.791 C 83.635 237.636,78.626 247.410,61.887 277.000 C 35.769 323.173,25.092 345.877,19.854 366.383 C 14.975 385.481,16.243 395.465,23.914 398.335 C 28.484 400.045,27.487 400.019,84.849 399.923 L 138.167 399.833 140.013 399.126 C 148.807 395.754,150.947 392.972,172.422 357.000 C 190.291 327.067,196.366 320.079,202.167 322.784 C 207.338 325.195,213.632 333.588,226.576 355.333 C 248.923 392.876,251.088 395.713,259.993 399.127 L 261.833 399.833 315.151 399.923 C 372.471 400.019,371.522 400.043,376.060 398.344 C 383.264 395.647,384.784 387.337,381.123 370.667 C 376.585 350.004,365.917 326.306,342.409 284.667 C 301.104 211.506,301.141 210.199,344.568 209.009 C 371.309 208.277,381.344 205.794,390.019 197.762 C 401.087 187.516,403.355 166.448,394.929 152.167 C 381.864 130.022,351.260 112.977,286.324 91.675 C 269.360 86.111,265.290 84.554,264.857 83.463 C 264.719 83.117,264.400 79.683,264.149 75.833 C 261.316 32.550,248.010 10.326,220.167 2.376 C 212.826 0.281,198.287 -0.695,190.333 0.373 " stroke="none" fill="#000000" fill-rule="evenodd"></path></g></svg>