# Blender 3.4.1
# www.blender.org
mtllib puck.mtl
o Cylinder
v 0.000000 -0.375000 -1.245102
v -0.245196 -0.125000 -1.451227
v 0.245196 -0.125000 -1.451227
v 0.000000 0.375000 -1.245102
v 0.245196 0.125000 -1.451227
v -0.245196 0.125000 -1.451227
v 0.476480 -0.375000 -1.150324
v 0.328829 -0.125000 -1.434592
v 0.781893 -0.125000 -1.246927
v 0.476480 0.375000 -1.150324
v 0.781893 0.125000 -1.246927
v 0.328829 0.125000 -1.434592
v 0.880420 -0.375000 -0.880420
v 0.852793 -0.125000 -1.199553
v 1.199553 -0.125000 -0.852793
v 0.880420 0.375000 -0.880420
v 1.199553 0.125000 -0.852793
v 0.852793 0.125000 -1.199553
v 1.150324 -0.375000 -0.476480
v 1.246927 -0.125000 -0.781893
v 1.434592 -0.125000 -0.328829
v 1.150324 0.375000 -0.476480
v 1.434592 0.125000 -0.328829
v 1.246927 0.125000 -0.781893
v 1.245102 -0.375000 0.000000
v 1.451227 -0.125000 -0.245196
v 1.451227 -0.125000 0.245196
v 1.245102 0.375000 0.000000
v 1.451227 0.125000 0.245196
v 1.451227 0.125000 -0.245196
v 1.150324 -0.375000 0.476480
v 1.434592 -0.125000 0.328829
v 1.246927 -0.125000 0.781893
v 1.150324 0.375000 0.476480
v 1.246927 0.125000 0.781893
v 1.434592 0.125000 0.328829
v 0.880420 -0.375000 0.880420
v 1.199553 -0.125000 0.852793
v 0.852793 -0.125000 1.199553
v 0.880420 0.375000 0.880420
v 0.852793 0.125000 1.199553
v 1.199553 0.125000 0.852793
v 0.476480 -0.375000 1.150324
v 0.781893 -0.125000 1.246927
v 0.328829 -0.125000 1.434592
v 0.476480 0.375000 1.150324
v 0.328829 0.125000 1.434592
v 0.781893 0.125000 1.246927
v 0.000000 -0.375000 1.245102
v 0.245196 -0.125000 1.451227
v -0.245196 -0.125000 1.451227
v 0.000000 0.375000 1.245102
v -0.245196 0.125000 1.451227
v 0.245196 0.125000 1.451227
v -0.476480 -0.375000 1.150324
v -0.328829 -0.125000 1.434592
v -0.781893 -0.125000 1.246927
v -0.476480 0.375000 1.150324
v -0.781893 0.125000 1.246927
v -0.328829 0.125000 1.434592
v -0.880420 -0.375000 0.880420
v -0.852793 -0.125000 1.199553
v -1.199553 -0.125000 0.852793
v -0.880420 0.375000 0.880420
v -1.199553 0.125000 0.852793
v -0.852793 0.125000 1.199553
v -1.150324 -0.375000 0.476480
v -1.246927 -0.125000 0.781893
v -1.434592 -0.125000 0.328829
v -1.150324 0.375000 0.476480
v -1.434592 0.125000 0.328829
v -1.246927 0.125000 0.781893
v -1.245102 -0.375000 0.000000
v -1.451227 -0.125000 0.245196
v -1.451227 -0.125000 -0.245196
v -1.245102 0.375000 0.000000
v -1.451227 0.125000 -0.245196
v -1.451227 0.125000 0.245196
v -1.150324 -0.375000 -0.476480
v -1.434592 -0.125000 -0.328829
v -1.246927 -0.125000 -0.781893
v -1.150324 0.375000 -0.476480
v -1.246927 0.125000 -0.781893
v -1.434592 0.125000 -0.328829
v -0.880420 -0.375000 -0.880420
v -1.199553 -0.125000 -0.852793
v -0.852793 -0.125000 -1.199553
v -0.880420 0.375000 -0.880420
v -0.852793 0.125000 -1.199553
v -1.199553 0.125000 -0.852793
v -0.476480 -0.375000 -1.150324
v -0.781893 -0.125000 -1.246927
v -0.328829 -0.125000 -1.434592
v -0.476480 0.375000 -1.150324
v -0.328829 0.125000 -1.434592
v -0.781893 0.125000 -1.246927
vn -0.1951 -0.0000 -0.9808
vn 0.8315 -0.0000 -0.5556
vn 0.9808 -0.0000 -0.1951
vn 0.9808 -0.0000 0.1951
vn 0.8315 -0.0000 0.5556
vn 0.5556 -0.0000 0.8315
vn 0.1951 -0.0000 0.9808
vn -0.1951 -0.0000 0.9808
vn -0.5556 -0.0000 0.8315
vn -0.8315 -0.0000 0.5556
vn -0.9808 -0.0000 0.1951
vn -0.9808 -0.0000 -0.1951
vn -0.8315 -0.0000 -0.5556
vn -0.5556 -0.0000 -0.8315
vn 0.5556 -0.0000 -0.8315
vn -0.0000 1.0000 -0.0000
vn 0.1951 -0.0000 -0.9808
vn -0.0000 -0.6362 -0.7716
vn -0.0000 0.6362 -0.7716
vn 0.2953 -0.6362 -0.7128
vn 0.2953 0.6362 -0.7128
vn 0.5456 -0.6362 -0.5456
vn 0.5456 0.6362 -0.5456
vn 0.7128 -0.6362 -0.2953
vn 0.7128 0.6362 -0.2953
vn 0.7716 -0.6362 -0.0000
vn 0.7716 0.6362 -0.0000
vn 0.7128 -0.6362 0.2953
vn 0.7128 0.6362 0.2953
vn 0.5456 -0.6362 0.5456
vn 0.5456 0.6362 0.5456
vn 0.2953 -0.6362 0.7128
vn 0.2953 0.6362 0.7128
vn -0.0000 -0.6362 0.7716
vn -0.0000 0.6362 0.7716
vn -0.2953 -0.6362 0.7128
vn -0.2953 0.6362 0.7128
vn -0.5456 -0.6362 0.5456
vn -0.5456 0.6362 0.5456
vn -0.7128 -0.6362 0.2953
vn -0.7128 0.6362 0.2953
vn -0.7716 -0.6362 -0.0000
vn -0.7716 0.6362 -0.0000
vn -0.7128 -0.6362 -0.2953
vn -0.7128 0.6362 -0.2953
vn -0.5456 -0.6362 -0.5456
vn -0.5456 0.6362 -0.5456
vn -0.2953 -0.6362 -0.7128
vn -0.2953 0.6362 -0.7128
vn 0.1380 -0.7071 -0.6935
vn 0.1379 0.7071 -0.6935
vn -0.0000 -0.0000 -1.0000
vn 0.3827 -0.0000 -0.9239
vn 0.3928 -0.7071 -0.5879
vn 0.3928 0.7071 -0.5879
vn 0.7071 -0.0000 -0.7071
vn 0.5879 -0.7071 -0.3928
vn 0.5879 0.7071 -0.3928
vn 0.9239 -0.0000 -0.3827
vn 0.6935 -0.7071 -0.1379
vn 0.6935 0.7071 -0.1380
vn 1.0000 -0.0000 -0.0000
vn 0.6935 -0.7071 0.1380
vn 0.6935 0.7071 0.1379
vn 0.9239 -0.0000 0.3827
vn 0.5879 -0.7071 0.3928
vn 0.5879 0.7071 0.3928
vn 0.7071 -0.0000 0.7071
vn 0.3928 -0.7071 0.5879
vn 0.3928 0.7071 0.5879
vn 0.3827 -0.0000 0.9239
vn 0.1379 -0.7071 0.6935
vn 0.1380 0.7071 0.6935
vn -0.0000 -0.0000 1.0000
vn -0.1380 -0.7071 0.6935
vn -0.1379 0.7071 0.6935
vn -0.3827 -0.0000 0.9239
vn -0.3928 -0.7071 0.5879
vn -0.3928 0.7071 0.5879
vn -0.7071 -0.0000 0.7071
vn -0.5879 -0.7071 0.3928
vn -0.5879 0.7071 0.3928
vn -0.9239 -0.0000 0.3827
vn -0.6935 -0.7071 0.1379
vn -0.6935 0.7071 0.1380
vn -1.0000 -0.0000 -0.0000
vn -0.6935 -0.7071 -0.1380
vn -0.6935 0.7071 -0.1379
vn -0.9239 -0.0000 -0.3827
vn -0.5879 -0.7071 -0.3928
vn -0.5879 0.7071 -0.3928
vn -0.7071 -0.0000 -0.7071
vn -0.3928 -0.7071 -0.5879
vn -0.3928 0.7071 -0.5879
vn -0.3827 -0.0000 -0.9239
vn -0.1379 -0.7071 -0.6935
vn -0.1380 0.7071 -0.6935
vn -0.0000 -1.0000 -0.0000
vn 0.1379 -0.7071 -0.6935
vn 0.1380 0.7071 -0.6935
vn 0.6935 -0.7071 -0.1380
vn 0.6935 0.7071 -0.1379
vn 0.6935 -0.7071 0.1379
vn 0.6935 0.7071 0.1380
vn 0.1380 -0.7071 0.6935
vn 0.1379 0.7071 0.6935
vn -0.1379 -0.7071 0.6935
vn -0.1380 0.7071 0.6935
vn -0.6935 -0.7071 0.1380
vn -0.6935 0.7071 0.1379
vn -0.6935 -0.7071 -0.1379
vn -0.6935 0.7071 -0.1380
vn -0.1380 -0.7071 -0.6935
vn -0.1379 0.7071 -0.6935
vt 0.750000 0.449216
vt 0.026697 0.666667
vt 0.710769 0.482196
vt 0.973303 0.666667
vt 0.789231 0.482196
vt 0.000000 0.666667
vt 0.250000 0.449216
vt 0.973303 0.833333
vt 0.289231 0.482196
vt 0.000000 0.833333
vt 0.210769 0.482196
vt 0.026697 0.833333
vt 0.826237 0.434052
vt 0.802613 0.479535
vt 0.964197 0.666667
vt 0.875103 0.449508
vt 0.910803 0.666667
vt 0.326237 0.434052
vt 0.910803 0.833333
vt 0.375103 0.449508
vt 0.964197 0.833333
vt 0.302613 0.479535
vt 0.890867 0.390867
vt 0.886447 0.441928
vt 0.901697 0.666667
vt 0.941928 0.386447
vt 0.848303 0.666667
vt 0.390867 0.390867
vt 0.848303 0.833333
vt 0.441928 0.386447
vt 0.386447 0.441928
vt 0.901697 0.833333
vt 0.934052 0.326237
vt 0.949508 0.375103
vt 0.839197 0.666667
vt 0.785803 0.666667
vt 0.979535 0.302613
vt 0.434052 0.326237
vt 0.785803 0.833333
vt 0.479535 0.302613
vt 0.449508 0.375103
vt 0.839197 0.833333
vt 0.949216 0.250000
vt 0.982196 0.289231
vt 0.776697 0.666667
vt 0.982196 0.210769
vt 0.723303 0.666667
vt 0.449216 0.250000
vt 0.723303 0.833333
vt 0.482196 0.210769
vt 0.482196 0.289231
vt 0.776697 0.833333
vt 0.934052 0.173763
vt 0.979535 0.197387
vt 0.714197 0.666667
vt 0.949508 0.124897
vt 0.660803 0.666667
vt 0.434052 0.173763
vt 0.660803 0.833333
vt 0.449508 0.124897
vt 0.714197 0.833333
vt 0.479535 0.197387
vt 0.890867 0.109133
vt 0.941928 0.113553
vt 0.651697 0.666667
vt 0.886447 0.058072
vt 0.598303 0.666667
vt 0.390867 0.109133
vt 0.598303 0.833333
vt 0.386447 0.058072
vt 0.441928 0.113553
vt 0.651697 0.833333
vt 0.826237 0.065948
vt 0.875103 0.050492
vt 0.589197 0.666667
vt 0.535803 0.666667
vt 0.802613 0.020465
vt 0.326237 0.065948
vt 0.535803 0.833333
vt 0.302613 0.020465
vt 0.375103 0.050492
vt 0.589197 0.833333
vt 0.750000 0.050784
vt 0.789231 0.017804
vt 0.526697 0.666667
vt 0.710769 0.017804
vt 0.473303 0.666667
vt 0.250000 0.050784
vt 0.473303 0.833333
vt 0.210769 0.017804
vt 0.289231 0.017804
vt 0.526697 0.833333
vt 0.673763 0.065948
vt 0.697387 0.020465
vt 0.464197 0.666667
vt 0.624897 0.050492
vt 0.410803 0.666667
vt 0.173763 0.065948
vt 0.410803 0.833333
vt 0.124897 0.050492
vt 0.464197 0.833333
vt 0.197387 0.020465
vt 0.609133 0.109133
vt 0.613553 0.058072
vt 0.401697 0.666667
vt 0.558072 0.113553
vt 0.348303 0.666667
vt 0.109133 0.109133
vt 0.348303 0.833333
vt 0.058072 0.113553
vt 0.113553 0.058072
vt 0.401697 0.833333
vt 0.565948 0.173763
vt 0.550492 0.124897
vt 0.339197 0.666667
vt 0.285803 0.666667
vt 0.520465 0.197387
vt 0.065948 0.173763
vt 0.285803 0.833333
vt 0.020465 0.197387
vt 0.050492 0.124897
vt 0.339197 0.833333
vt 0.550784 0.250000
vt 0.517804 0.210769
vt 0.276697 0.666667
vt 0.517804 0.289231
vt 0.223303 0.666667
vt 0.050784 0.250000
vt 0.223303 0.833333
vt 0.017804 0.289231
vt 0.017804 0.210769
vt 0.276697 0.833333
vt 0.565948 0.326237
vt 0.520465 0.302613
vt 0.214197 0.666667
vt 0.550492 0.375103
vt 0.160803 0.666667
vt 0.065948 0.326237
vt 0.160803 0.833333
vt 0.050492 0.375103
vt 0.214197 0.833333
vt 0.020465 0.302613
vt 0.609133 0.390867
vt 0.558072 0.386447
vt 0.151697 0.666667
vt 0.613553 0.441928
vt 0.098303 0.666667
vt 0.109133 0.390867
vt 0.098303 0.833333
vt 0.113553 0.441928
vt 0.058072 0.386447
vt 0.151697 0.833333
vt 0.673763 0.434052
vt 0.624897 0.449508
vt 0.089197 0.666667
vt 0.035803 0.666667
vt 0.697387 0.479535
vt 0.173763 0.434052
vt 0.035803 0.833333
vt 0.197387 0.479535
vt 0.124897 0.449508
vt 0.089197 0.833333
s 0
usemtl Material.005
f 95/159/1 2/2/1 93/156/1
f 17/29/2 20/35/2 15/27/2
f 23/39/3 26/45/3 21/36/3
f 29/49/4 32/55/4 27/47/4
f 35/59/5 38/65/5 33/57/5
f 41/69/6 44/75/6 39/67/6
f 47/79/7 50/85/7 45/76/7
f 53/89/8 56/95/8 51/87/8
f 59/99/9 62/105/9 57/97/9
f 65/109/10 68/115/10 63/107/10
f 71/119/11 74/125/11 69/116/11
f 77/129/12 80/135/12 75/127/12
f 83/139/13 86/145/13 81/137/13
f 89/149/14 92/155/14 87/147/14
f 11/19/15 14/25/15 9/17/15
f 64/108/16 40/68/16 16/28/16
f 5/8/17 8/15/17 3/4/17
f 1/1/18 2/3/18 3/5/18
f 4/7/19 5/9/19 6/11/19
f 7/13/20 8/14/20 9/16/20
f 10/18/21 11/20/21 12/22/21
f 13/23/22 14/24/22 15/26/22
f 16/28/23 17/30/23 18/31/23
f 19/33/24 20/34/24 21/37/24
f 22/38/25 23/40/25 24/41/25
f 25/43/26 26/44/26 27/46/26
f 28/48/27 29/50/27 30/51/27
f 31/53/28 32/54/28 33/56/28
f 34/58/29 35/60/29 36/62/29
f 37/63/30 38/64/30 39/66/30
f 40/68/31 41/70/31 42/71/31
f 43/73/32 44/74/32 45/77/32
f 46/78/33 47/80/33 48/81/33
f 49/83/34 50/84/34 51/86/34
f 52/88/35 53/90/35 54/91/35
f 55/93/36 56/94/36 57/96/36
f 58/98/37 59/100/37 60/102/37
f 61/103/38 62/104/38 63/106/38
f 64/108/39 65/110/39 66/111/39
f 67/113/40 68/114/40 69/117/40
f 70/118/41 71/120/41 72/121/41
f 73/123/42 74/124/42 75/126/42
f 76/128/43 77/130/43 78/131/43
f 79/133/44 80/134/44 81/136/44
f 82/138/45 83/140/45 84/142/45
f 85/143/46 86/144/46 87/146/46
f 88/148/47 89/150/47 90/151/47
f 91/153/48 92/154/48 93/157/48
f 94/158/49 95/160/49 96/161/49
f 8/14/50 1/1/50 3/5/50
f 12/22/51 4/7/51 10/18/51
f 6/12/52 3/6/52 2/2/52
f 11/19/53 8/15/53 12/21/53
f 14/24/54 7/13/54 9/16/54
f 11/20/55 16/28/55 18/31/55
f 15/27/56 18/32/56 17/29/56
f 20/34/57 13/23/57 15/26/57
f 17/30/58 22/38/58 24/41/58
f 21/36/59 24/42/59 23/39/59
f 21/37/60 25/43/60 19/33/60
f 23/40/61 28/48/61 30/51/61
f 27/47/62 30/52/62 29/49/62
f 32/54/63 25/43/63 27/46/63
f 36/62/64 28/48/64 34/58/64
f 35/59/65 32/55/65 36/61/65
f 38/64/66 31/53/66 33/56/66
f 35/60/67 40/68/67 42/71/67
f 39/67/68 42/72/68 41/69/68
f 44/74/69 37/63/69 39/66/69
f 41/70/70 46/78/70 48/81/70
f 45/76/71 48/82/71 47/79/71
f 45/77/72 49/83/72 43/73/72
f 47/80/73 52/88/73 54/91/73
f 51/87/74 54/92/74 53/89/74
f 56/94/75 49/83/75 51/86/75
f 60/102/76 52/88/76 58/98/76
f 59/99/77 56/95/77 60/101/77
f 62/104/78 55/93/78 57/96/78
f 59/100/79 64/108/79 66/111/79
f 63/107/80 66/112/80 65/109/80
f 68/114/81 61/103/81 63/106/81
f 65/110/82 70/118/82 72/121/82
f 69/116/83 72/122/83 71/119/83
f 69/117/84 73/123/84 67/113/84
f 71/120/85 76/128/85 78/131/85
f 75/127/86 78/132/86 77/129/86
f 80/134/87 73/123/87 75/126/87
f 84/142/88 76/128/88 82/138/88
f 83/139/89 80/135/89 84/141/89
f 86/144/90 79/133/90 81/136/90
f 83/140/91 88/148/91 90/151/91
f 87/147/92 90/152/92 89/149/92
f 92/154/93 85/143/93 87/146/93
f 89/150/94 94/158/94 96/161/94
f 93/156/95 96/162/95 95/159/95
f 93/157/96 1/1/96 91/153/96
f 95/160/97 4/7/97 6/11/97
f 43/73/98 67/113/98 91/153/98
f 95/159/1 6/12/1 2/2/1
f 17/29/2 24/42/2 20/35/2
f 23/39/3 30/52/3 26/45/3
f 29/49/4 36/61/4 32/55/4
f 35/59/5 42/72/5 38/65/5
f 41/69/6 48/82/6 44/75/6
f 47/79/7 54/92/7 50/85/7
f 53/89/8 60/101/8 56/95/8
f 59/99/9 66/112/9 62/105/9
f 65/109/10 72/122/10 68/115/10
f 71/119/11 78/132/11 74/125/11
f 77/129/12 84/141/12 80/135/12
f 83/139/13 90/152/13 86/145/13
f 89/149/14 96/162/14 92/155/14
f 11/19/15 18/32/15 14/25/15
f 16/28/16 10/18/16 4/7/16
f 4/7/16 94/158/16 88/148/16
f 88/148/16 82/138/16 76/128/16
f 76/128/16 70/118/16 64/108/16
f 64/108/16 58/98/16 52/88/16
f 52/88/16 46/78/16 40/68/16
f 40/68/16 34/58/16 28/48/16
f 28/48/16 22/38/16 16/28/16
f 16/28/16 4/7/16 88/148/16
f 88/148/16 76/128/16 64/108/16
f 64/108/16 52/88/16 40/68/16
f 40/68/16 28/48/16 16/28/16
f 16/28/16 88/148/16 64/108/16
f 5/8/17 12/21/17 8/15/17
f 8/14/99 7/13/99 1/1/99
f 12/22/100 5/9/100 4/7/100
f 6/12/52 5/10/52 3/6/52
f 11/19/53 9/17/53 8/15/53
f 14/24/54 13/23/54 7/13/54
f 11/20/55 10/18/55 16/28/55
f 15/27/56 14/25/56 18/32/56
f 20/34/57 19/33/57 13/23/57
f 17/30/58 16/28/58 22/38/58
f 21/36/59 20/35/59 24/42/59
f 21/37/101 26/44/101 25/43/101
f 23/40/102 22/38/102 28/48/102
f 27/47/62 26/45/62 30/52/62
f 32/54/103 31/53/103 25/43/103
f 36/62/104 29/50/104 28/48/104
f 35/59/65 33/57/65 32/55/65
f 38/64/66 37/63/66 31/53/66
f 35/60/67 34/58/67 40/68/67
f 39/67/68 38/65/68 42/72/68
f 44/74/69 43/73/69 37/63/69
f 41/70/70 40/68/70 46/78/70
f 45/76/71 44/75/71 48/82/71
f 45/77/105 50/84/105 49/83/105
f 47/80/106 46/78/106 52/88/106
f 51/87/74 50/85/74 54/92/74
f 56/94/107 55/93/107 49/83/107
f 60/102/108 53/90/108 52/88/108
f 59/99/77 57/97/77 56/95/77
f 62/104/78 61/103/78 55/93/78
f 59/100/79 58/98/79 64/108/79
f 63/107/80 62/105/80 66/112/80
f 68/114/81 67/113/81 61/103/81
f 65/110/82 64/108/82 70/118/82
f 69/116/83 68/115/83 72/122/83
f 69/117/109 74/124/109 73/123/109
f 71/120/110 70/118/110 76/128/110
f 75/127/86 74/125/86 78/132/86
f 80/134/111 79/133/111 73/123/111
f 84/142/112 77/130/112 76/128/112
f 83/139/89 81/137/89 80/135/89
f 86/144/90 85/143/90 79/133/90
f 83/140/91 82/138/91 88/148/91
f 87/147/92 86/145/92 90/152/92
f 92/154/93 91/153/93 85/143/93
f 89/150/94 88/148/94 94/158/94
f 93/156/95 92/155/95 96/162/95
f 93/157/113 2/3/113 1/1/113
f 95/160/114 94/158/114 4/7/114
f 91/153/98 1/1/98 7/13/98
f 7/13/98 13/23/98 19/33/98
f 19/33/98 25/43/98 31/53/98
f 31/53/98 37/63/98 43/73/98
f 43/73/98 49/83/98 55/93/98
f 55/93/98 61/103/98 67/113/98
f 67/113/98 73/123/98 79/133/98
f 79/133/98 85/143/98 91/153/98
f 91/153/98 7/13/98 19/33/98
f 19/33/98 31/53/98 43/73/98
f 43/73/98 55/93/98 67/113/98
f 67/113/98 79/133/98 91/153/98
f 91/153/98 19/33/98 43/73/98
