# Blender v2.83.5 OBJ File: ''
# www.blender.org
o Cube
v 1.500000 0.500000 -3.000000
v 1.500000 -0.500000 -3.000000
v 1.500000 -0.500000 3.000000
v -1.500000 0.500000 -3.000000
v -1.500000 -0.500000 -3.000000
v -1.500000 -0.500000 3.000000
v 1.500000 -0.595916 4.389420
v -1.500000 -0.595916 4.389420
vt 0.625000 0.500000
vt 0.125000 0.750000
vt 0.375000 0.750000
vt 0.625000 0.250000
vt 0.375000 0.500000
vt 0.375000 0.250000
vt 0.000000 0.000000
vt 0.000000 0.000000
vt 0.000000 0.000000
vt 0.125000 0.750000
vt 0.000000 0.000000
vt 0.375000 0.750000
vn 0.0000 0.9864 0.1644
vn 0.0000 0.0000 -1.0000
vn 1.0000 0.0000 0.0000
vn -1.0000 0.0000 0.0000
vn 0.0000 -1.0000 0.0000
vn 0.0000 -0.9976 -0.0689
s off
f 1/1/1 6/2/1 3/3/1
f 4/4/2 2/5/2 5/6/2
f 2/5/3 1/1/3 3/3/3
f 5/6/4 6/2/4 4/4/4
f 3/7/5 5/8/5 2/9/5
f 3/3/6 8/10/6 6/2/6
f 1/1/1 4/4/1 6/2/1
f 4/4/2 1/1/2 2/5/2
f 3/7/5 6/11/5 5/8/5
f 3/3/6 7/12/6 8/10/6
