# Blender v2.83.5 OBJ File: ''
# www.blender.org
o Cube_Cube.001
v -1.500000 -0.500000 4.000000
v -1.500000 -0.500000 -4.000000
v -1.500000 0.500000 -4.000000
v 1.500000 -0.500000 4.000000
v 1.500000 -0.500000 -4.000000
v 1.500000 0.500000 -4.000000
v -1.500000 -0.500000 4.000000
v -1.500000 0.500000 -4.000000
v -1.500000 -0.480000 3.840000
v -1.500000 -0.460000 3.680000
v -1.500000 -0.440000 3.520000
v -1.500000 -0.420000 3.360000
v -1.500000 -0.400000 3.200000
v -1.500000 -0.380000 3.040000
v -1.500000 -0.360000 2.880000
v -1.500000 -0.340000 2.720000
v -1.500000 -0.320000 2.560000
v -1.500000 -0.300000 2.400000
v -1.500000 -0.280000 2.240000
v -1.500000 -0.260000 2.080000
v -1.500000 -0.240000 1.920000
v -1.500000 -0.220000 1.760000
v -1.500000 -0.200000 1.600000
v -1.500000 -0.180000 1.440000
v -1.500000 -0.160000 1.280000
v -1.500000 -0.140000 1.120000
v -1.500000 -0.120000 0.960000
v -1.500000 -0.100000 0.800000
v -1.500000 -0.080000 0.640000
v -1.500000 -0.060000 0.480000
v -1.500000 -0.040000 0.320000
v -1.500000 -0.020000 0.160000
v -1.500000 0.000000 0.000000
v -1.500000 0.020000 -0.160000
v -1.500000 0.040000 -0.320000
v -1.500000 0.060000 -0.480000
v -1.500000 0.080000 -0.640000
v -1.500000 0.100000 -0.800000
v -1.500000 0.120000 -0.960000
v -1.500000 0.140000 -1.120000
v -1.500000 0.160000 -1.280000
v -1.500000 0.180000 -1.440000
v -1.500000 0.200000 -1.600000
v -1.500000 0.220000 -1.760000
v -1.500000 0.240000 -1.920000
v -1.500000 0.260000 -2.080000
v -1.500000 0.280000 -2.240000
v -1.500000 0.300000 -2.400000
v -1.500000 0.320000 -2.560000
v -1.500000 0.340000 -2.720000
v -1.500000 0.360000 -2.880000
v -1.500000 0.380000 -3.040000
v -1.500000 0.400000 -3.200000
v -1.500000 0.420000 -3.360000
v -1.500000 0.440000 -3.520000
v -1.500000 0.460000 -3.680000
v -1.500000 0.480000 -3.840000
v 1.500000 0.500000 -4.000000
v 1.500000 -0.500000 4.000000
v 1.500000 0.480000 -3.840000
v 1.500000 0.460000 -3.680000
v 1.500000 0.440000 -3.520000
v 1.500000 0.420000 -3.360000
v 1.500000 0.400000 -3.200000
v 1.500000 0.380000 -3.040000
v 1.500000 0.360000 -2.880000
v 1.500000 0.340000 -2.720000
v 1.500000 0.320000 -2.560000
v 1.500000 0.300000 -2.400000
v 1.500000 0.280000 -2.240000
v 1.500000 0.260000 -2.080000
v 1.500000 0.240000 -1.920000
v 1.500000 0.220000 -1.760000
v 1.500000 0.200000 -1.600000
v 1.500000 0.180000 -1.440000
v 1.500000 0.160000 -1.280000
v 1.500000 0.140000 -1.120000
v 1.500000 0.120000 -0.960000
v 1.500000 0.100000 -0.800000
v 1.500000 0.080000 -0.640000
v 1.500000 0.060000 -0.480000
v 1.500000 0.040000 -0.320000
v 1.500000 0.020000 -0.160000
v 1.500000 0.000000 0.000000
v 1.500000 -0.020000 0.160000
v 1.500000 -0.040000 0.320000
v 1.500000 -0.060000 0.480000
v 1.500000 -0.080000 0.640000
v 1.500000 -0.100000 0.800000
v 1.500000 -0.120000 0.960000
v 1.500000 -0.140000 1.120000
v 1.500000 -0.160000 1.280000
v 1.500000 -0.180000 1.440000
v 1.500000 -0.200000 1.600000
v 1.500000 -0.220000 1.760000
v 1.500000 -0.240000 1.920000
v 1.500000 -0.260000 2.080000
v 1.500000 -0.280000 2.240000
v 1.500000 -0.300000 2.400000
v 1.500000 -0.320000 2.560000
v 1.500000 -0.340000 2.720000
v 1.500000 -0.360000 2.880000
v 1.500000 -0.380000 3.040000
v 1.500000 -0.400000 3.200000
v 1.500000 -0.420000 3.360000
v 1.500000 -0.440000 3.520000
v 1.500000 -0.460000 3.680000
v 1.500000 -0.480000 3.840000
vt 0.625000 0.500000
vt 0.875000 0.500000
vt 0.625000 0.500000
vt 0.625000 0.250000
vt 0.375000 0.500000
vt 0.375000 0.250000
vt 0.510000 0.135000
vt 0.515000 0.140000
vt 0.125000 0.750000
vt 0.125000 0.500000
vt 0.490000 0.635000
vt 0.485000 0.640000
vt 0.625000 0.505000
vt 0.875000 0.505000
vt 0.625000 0.510000
vt 0.875000 0.510000
vt 0.625000 0.515000
vt 0.875000 0.515000
vt 0.625000 0.520000
vt 0.875000 0.520000
vt 0.625000 0.525000
vt 0.875000 0.525000
vt 0.625000 0.530000
vt 0.875000 0.530000
vt 0.625000 0.535000
vt 0.875000 0.535000
vt 0.625000 0.540000
vt 0.875000 0.540000
vt 0.625000 0.545000
vt 0.875000 0.545000
vt 0.625000 0.550000
vt 0.875000 0.550000
vt 0.625000 0.555000
vt 0.875000 0.555000
vt 0.625000 0.560000
vt 0.875000 0.560000
vt 0.625000 0.565000
vt 0.875000 0.565000
vt 0.625000 0.570000
vt 0.875000 0.570000
vt 0.625000 0.575000
vt 0.875000 0.575000
vt 0.625000 0.580000
vt 0.875000 0.580000
vt 0.625000 0.585000
vt 0.875000 0.585000
vt 0.625000 0.590000
vt 0.875000 0.590000
vt 0.625000 0.595000
vt 0.875000 0.595000
vt 0.625000 0.600000
vt 0.875000 0.600000
vt 0.625000 0.605000
vt 0.875000 0.605000
vt 0.625000 0.610000
vt 0.875000 0.610000
vt 0.625000 0.615000
vt 0.875000 0.615000
vt 0.625000 0.620000
vt 0.875000 0.620000
vt 0.625000 0.750000
vt 0.625000 1.000000
vt 0.495000 0.750000
vt 0.495000 1.000000
vt 0.490000 0.750000
vt 0.490000 1.000000
vt 0.485000 0.750000
vt 0.485000 1.000000
vt 0.480000 0.750000
vt 0.480000 1.000000
vt 0.475000 0.750000
vt 0.475000 1.000000
vt 0.470000 0.750000
vt 0.470000 1.000000
vt 0.465000 0.750000
vt 0.465000 1.000000
vt 0.460000 0.750000
vt 0.460000 1.000000
vt 0.455000 0.750000
vt 0.455000 1.000000
vt 0.450000 0.750000
vt 0.450000 1.000000
vt 0.445000 0.750000
vt 0.445000 1.000000
vt 0.440000 0.750000
vt 0.440000 1.000000
vt 0.435000 0.750000
vt 0.435000 1.000000
vt 0.430000 0.750000
vt 0.430000 1.000000
vt 0.425000 0.750000
vt 0.425000 1.000000
vt 0.420000 0.750000
vt 0.420000 1.000000
vt 0.415000 0.750000
vt 0.415000 1.000000
vt 0.410000 0.750000
vt 0.410000 1.000000
vt 0.405000 0.750000
vt 0.405000 1.000000
vt 0.400000 0.750000
vt 0.400000 1.000000
vt 0.395000 0.750000
vt 0.395000 1.000000
vt 0.390000 0.750000
vt 0.390000 1.000000
vt 0.385000 0.750000
vt 0.385000 1.000000
vt 0.380000 0.750000
vt 0.380000 1.000000
vt 0.375000 0.750000
vt 0.375000 0.750000
vt 0.375000 1.000000
vt 0.375000 1.000000
vt 0.875000 0.500000
vt 0.375000 0.000000
vt 0.375000 0.000000
vt 0.380000 0.005000
vt 0.385000 0.010000
vt 0.390000 0.015000
vt 0.620000 0.245000
vt 0.625000 0.250000
vt 0.395000 0.020000
vt 0.400000 0.025000
vt 0.405000 0.030000
vt 0.605000 0.230000
vt 0.610000 0.235000
vt 0.615000 0.240000
vt 0.410000 0.035000
vt 0.415000 0.040000
vt 0.420000 0.045000
vt 0.590000 0.215000
vt 0.595000 0.220000
vt 0.600000 0.225000
vt 0.425000 0.050000
vt 0.430000 0.055000
vt 0.435000 0.060000
vt 0.575000 0.200000
vt 0.580000 0.205000
vt 0.585000 0.210000
vt 0.440000 0.065000
vt 0.445000 0.070000
vt 0.450000 0.075000
vt 0.560000 0.185000
vt 0.565000 0.190000
vt 0.570000 0.195000
vt 0.455000 0.080000
vt 0.460000 0.085000
vt 0.465000 0.090000
vt 0.545000 0.170000
vt 0.550000 0.175000
vt 0.555000 0.180000
vt 0.470000 0.095000
vt 0.475000 0.100000
vt 0.480000 0.105000
vt 0.530000 0.155000
vt 0.535000 0.160000
vt 0.540000 0.165000
vt 0.485000 0.110000
vt 0.490000 0.115000
vt 0.495000 0.120000
vt 0.520000 0.145000
vt 0.525000 0.150000
vt 0.500000 0.125000
vt 0.505000 0.130000
vt 0.620000 0.505000
vt 0.615000 0.510000
vt 0.610000 0.515000
vt 0.380000 0.745000
vt 0.605000 0.520000
vt 0.600000 0.525000
vt 0.595000 0.530000
vt 0.395000 0.730000
vt 0.390000 0.735000
vt 0.385000 0.740000
vt 0.590000 0.535000
vt 0.585000 0.540000
vt 0.580000 0.545000
vt 0.410000 0.715000
vt 0.405000 0.720000
vt 0.400000 0.725000
vt 0.575000 0.550000
vt 0.570000 0.555000
vt 0.565000 0.560000
vt 0.425000 0.700000
vt 0.420000 0.705000
vt 0.415000 0.710000
vt 0.560000 0.565000
vt 0.555000 0.570000
vt 0.550000 0.575000
vt 0.440000 0.685000
vt 0.435000 0.690000
vt 0.430000 0.695000
vt 0.545000 0.580000
vt 0.540000 0.585000
vt 0.535000 0.590000
vt 0.455000 0.670000
vt 0.450000 0.675000
vt 0.445000 0.680000
vt 0.530000 0.595000
vt 0.525000 0.600000
vt 0.520000 0.605000
vt 0.470000 0.655000
vt 0.465000 0.660000
vt 0.460000 0.665000
vt 0.515000 0.610000
vt 0.510000 0.615000
vt 0.505000 0.620000
vt 0.480000 0.645000
vt 0.475000 0.650000
vt 0.500000 0.625000
vt 0.495000 0.630000
vt 0.875000 0.750000
vn 0.0000 0.0000 1.0000
vn 0.0000 0.0000 -1.0000
vn -1.0000 0.0000 0.0000
vn 0.0000 -1.0000 0.0000
vn 1.0000 0.0000 0.0000
vn 0.0000 0.9923 0.1240
s off
f 6/1/1 8/2/1 58/3/1
f 3/4/2 5/5/2 2/6/2
f 35/7/3 36/8/3 2/6/3
f 5/5/4 1/9/4 2/10/4
f 5/5/5 86/11/5 87/12/5
f 8/2/6 60/13/6 58/3/6
f 57/14/6 61/15/6 60/13/6
f 56/16/6 62/17/6 61/15/6
f 55/18/6 63/19/6 62/17/6
f 54/20/6 64/21/6 63/19/6
f 53/22/6 65/23/6 64/21/6
f 52/24/6 66/25/6 65/23/6
f 51/26/6 67/27/6 66/25/6
f 50/28/6 68/29/6 67/27/6
f 49/30/6 69/31/6 68/29/6
f 48/32/6 70/33/6 69/31/6
f 47/34/6 71/35/6 70/33/6
f 46/36/6 72/37/6 71/35/6
f 45/38/6 73/39/6 72/37/6
f 44/40/6 74/41/6 73/39/6
f 43/42/6 75/43/6 74/41/6
f 42/44/6 76/45/6 75/43/6
f 41/46/6 77/47/6 76/45/6
f 40/48/6 78/49/6 77/47/6
f 39/50/6 79/51/6 78/49/6
f 38/52/6 80/53/6 79/51/6
f 37/54/6 81/55/6 80/53/6
f 36/56/6 82/57/6 81/55/6
f 35/58/6 83/59/6 82/57/6
f 34/60/6 84/61/6 83/59/6
f 33/62/6 85/63/6 84/61/6
f 32/64/6 86/65/6 85/63/6
f 31/66/6 87/67/6 86/65/6
f 30/68/6 88/69/6 87/67/6
f 29/70/6 89/71/6 88/69/6
f 28/72/6 90/73/6 89/71/6
f 27/74/6 91/75/6 90/73/6
f 26/76/6 92/77/6 91/75/6
f 25/78/6 93/79/6 92/77/6
f 24/80/6 94/81/6 93/79/6
f 23/82/6 95/83/6 94/81/6
f 22/84/6 96/85/6 95/83/6
f 21/86/6 97/87/6 96/85/6
f 20/88/6 98/89/6 97/87/6
f 19/90/6 99/91/6 98/89/6
f 18/92/6 100/93/6 99/91/6
f 17/94/6 101/95/6 100/93/6
f 16/96/6 102/97/6 101/95/6
f 15/98/6 103/99/6 102/97/6
f 14/100/6 104/101/6 103/99/6
f 13/102/6 105/103/6 104/101/6
f 12/104/6 106/105/6 105/103/6
f 11/106/6 107/107/6 106/105/6
f 10/108/6 108/109/6 107/107/6
f 9/110/6 59/111/6 108/109/6
f 4/112/1 7/113/1 1/114/1
f 6/1/1 3/115/1 8/2/1
f 3/4/2 6/1/2 5/5/2
f 2/6/1 1/116/1 7/117/1
f 9/118/3 10/119/3 2/6/3
f 10/119/3 11/120/3 2/6/3
f 2/6/3 7/117/3 9/118/3
f 57/121/1 8/122/1 3/4/1
f 12/123/3 13/124/3 2/6/3
f 13/124/3 14/125/3 2/6/3
f 2/6/3 11/120/3 12/123/3
f 57/121/3 3/4/3 2/6/3
f 54/126/3 55/127/3 2/6/3
f 55/127/3 56/128/3 2/6/3
f 56/128/3 57/121/3 2/6/3
f 15/129/3 16/130/3 2/6/3
f 16/130/3 17/131/3 2/6/3
f 2/6/3 14/125/3 15/129/3
f 51/132/3 52/133/3 2/6/3
f 52/133/3 53/134/3 2/6/3
f 53/134/3 54/126/3 2/6/3
f 18/135/3 19/136/3 2/6/3
f 19/136/3 20/137/3 2/6/3
f 2/6/3 17/131/3 18/135/3
f 48/138/3 49/139/3 2/6/3
f 49/139/3 50/140/3 2/6/3
f 50/140/3 51/132/3 2/6/3
f 21/141/3 22/142/3 2/6/3
f 22/142/3 23/143/3 2/6/3
f 2/6/3 20/137/3 21/141/3
f 45/144/3 46/145/3 2/6/3
f 46/145/3 47/146/3 2/6/3
f 47/146/3 48/138/3 2/6/3
f 24/147/3 25/148/3 2/6/3
f 25/148/3 26/149/3 2/6/3
f 2/6/3 23/143/3 24/147/3
f 42/150/3 43/151/3 2/6/3
f 43/151/3 44/152/3 2/6/3
f 44/152/3 45/144/3 2/6/3
f 27/153/3 28/154/3 2/6/3
f 28/154/3 29/155/3 2/6/3
f 2/6/3 26/149/3 27/153/3
f 39/156/3 40/157/3 2/6/3
f 40/157/3 41/158/3 2/6/3
f 41/158/3 42/150/3 2/6/3
f 30/159/3 31/160/3 2/6/3
f 31/160/3 32/161/3 2/6/3
f 2/6/3 29/155/3 30/159/3
f 36/8/3 37/162/3 2/6/3
f 37/162/3 38/163/3 2/6/3
f 38/163/3 39/156/3 2/6/3
f 33/164/3 34/165/3 2/6/3
f 34/165/3 35/7/3 2/6/3
f 2/6/3 32/161/3 33/164/3
f 5/5/4 4/112/4 1/9/4
f 5/5/1 6/1/1 58/3/1
f 60/166/5 61/167/5 5/5/5
f 61/167/5 62/168/5 5/5/5
f 5/5/5 58/3/5 60/166/5
f 108/169/1 59/111/1 4/112/1
f 63/170/5 64/171/5 5/5/5
f 64/171/5 65/172/5 5/5/5
f 5/5/5 62/168/5 63/170/5
f 108/169/5 4/112/5 5/5/5
f 105/173/5 106/174/5 5/5/5
f 106/174/5 107/175/5 5/5/5
f 107/175/5 108/169/5 5/5/5
f 66/176/5 67/177/5 5/5/5
f 67/177/5 68/178/5 5/5/5
f 5/5/5 65/172/5 66/176/5
f 102/179/5 103/180/5 5/5/5
f 103/180/5 104/181/5 5/5/5
f 104/181/5 105/173/5 5/5/5
f 69/182/5 70/183/5 5/5/5
f 70/183/5 71/184/5 5/5/5
f 5/5/5 68/178/5 69/182/5
f 99/185/5 100/186/5 5/5/5
f 100/186/5 101/187/5 5/5/5
f 101/187/5 102/179/5 5/5/5
f 72/188/5 73/189/5 5/5/5
f 73/189/5 74/190/5 5/5/5
f 5/5/5 71/184/5 72/188/5
f 96/191/5 97/192/5 5/5/5
f 97/192/5 98/193/5 5/5/5
f 98/193/5 99/185/5 5/5/5
f 75/194/5 76/195/5 5/5/5
f 76/195/5 77/196/5 5/5/5
f 5/5/5 74/190/5 75/194/5
f 93/197/5 94/198/5 5/5/5
f 94/198/5 95/199/5 5/5/5
f 95/199/5 96/191/5 5/5/5
f 78/200/5 79/201/5 5/5/5
f 79/201/5 80/202/5 5/5/5
f 5/5/5 77/196/5 78/200/5
f 90/203/5 91/204/5 5/5/5
f 91/204/5 92/205/5 5/5/5
f 92/205/5 93/197/5 5/5/5
f 81/206/5 82/207/5 5/5/5
f 82/207/5 83/208/5 5/5/5
f 5/5/5 80/202/5 81/206/5
f 87/12/5 88/209/5 5/5/5
f 88/209/5 89/210/5 5/5/5
f 89/210/5 90/203/5 5/5/5
f 84/211/5 85/212/5 5/5/5
f 85/212/5 86/11/5 5/5/5
f 5/5/5 83/208/5 84/211/5
f 8/2/6 57/14/6 60/13/6
f 57/14/6 56/16/6 61/15/6
f 56/16/6 55/18/6 62/17/6
f 55/18/6 54/20/6 63/19/6
f 54/20/6 53/22/6 64/21/6
f 53/22/6 52/24/6 65/23/6
f 52/24/6 51/26/6 66/25/6
f 51/26/6 50/28/6 67/27/6
f 50/28/6 49/30/6 68/29/6
f 49/30/6 48/32/6 69/31/6
f 48/32/6 47/34/6 70/33/6
f 47/34/6 46/36/6 71/35/6
f 46/36/6 45/38/6 72/37/6
f 45/38/6 44/40/6 73/39/6
f 44/40/6 43/42/6 74/41/6
f 43/42/6 42/44/6 75/43/6
f 42/44/6 41/46/6 76/45/6
f 41/46/6 40/48/6 77/47/6
f 40/48/6 39/50/6 78/49/6
f 39/50/6 38/52/6 79/51/6
f 38/52/6 37/54/6 80/53/6
f 37/54/6 36/56/6 81/55/6
f 36/56/6 35/58/6 82/57/6
f 35/58/6 34/60/6 83/59/6
f 34/60/6 33/213/6 84/61/6
f 33/62/6 32/64/6 85/63/6
f 32/64/6 31/66/6 86/65/6
f 31/66/6 30/68/6 87/67/6
f 30/68/6 29/70/6 88/69/6
f 29/70/6 28/72/6 89/71/6
f 28/72/6 27/74/6 90/73/6
f 27/74/6 26/76/6 91/75/6
f 26/76/6 25/78/6 92/77/6
f 25/78/6 24/80/6 93/79/6
f 24/80/6 23/82/6 94/81/6
f 23/82/6 22/84/6 95/83/6
f 22/84/6 21/86/6 96/85/6
f 21/86/6 20/88/6 97/87/6
f 20/88/6 19/90/6 98/89/6
f 19/90/6 18/92/6 99/91/6
f 18/92/6 17/94/6 100/93/6
f 17/94/6 16/96/6 101/95/6
f 16/96/6 15/98/6 102/97/6
f 15/98/6 14/100/6 103/99/6
f 14/100/6 13/102/6 104/101/6
f 13/102/6 12/104/6 105/103/6
f 12/104/6 11/106/6 106/105/6
f 11/106/6 10/108/6 107/107/6
f 10/108/6 9/110/6 108/109/6
f 9/110/6 7/113/6 59/111/6
f 4/112/1 59/111/1 7/113/1
